<?xml version="1.0" encoding="utf-8"?>
<!-- Generator: Adobe Illustrator 24.2.3, SVG Export Plug-In . SVG Version: 6.00 Build 0)  -->
<svg version="1.1" id="Layer_1" xmlns="http://www.w3.org/2000/svg" xmlns:xlink="http://www.w3.org/1999/xlink" x="0px" y="0px"
	 viewBox="0 0 242.6 71.8" style="enable-background:new 0 0 242.6 71.8;" xml:space="preserve">
<style type="text/css">
	.st0{fill:#FFFFFF;}
</style>
<g>
	<g>
		<path class="st0" d="M35.9,0C35.9,0,35.9,0,35.9,0c-0.3,0-0.6,0-0.9,0C15.3,0.5-0.5,17,0,36.8c0.5,19.8,17,35.5,36.8,35
			c19.8-0.5,35.5-17,35-36.8C71.3,15.5,55.3,0,35.9,0z M36.7,67.8c-0.3,0-0.5,0-0.8,0C18.7,67.8,4.4,54,4,36.7
			C3.6,19.1,17.5,4.4,35.1,4c17.6-0.4,32.3,13.5,32.7,31.1C68.3,52.7,54.3,67.4,36.7,67.8z"/>
		<path class="st0" d="M60.7,38.8c-1.1-1.1-3.4-1.3-4.4,0c-2,2.6-4.2,5-6.7,7.3c-0.1-1.2-0.2-2.4-0.1-3.6c0.1-3.5,0.6-7,0.9-10.5
			c0.3-3,0.6-6.1-0.2-9c-0.4-1.4-1.1-3.3-2.4-4c-0.5-0.3-1.2-0.5-1.8-0.5c-1,0-2,0.3-2.8,0.8c-2.5,1.4-4.3,4.7-5.5,7.2
			c0,0.1-0.1,0.2-0.1,0.3c-1-2.9-3-5.4-6.7-4.2c-2.5,0.8-4.2,3.3-5.3,6c-0.5-1.3-1.3-2.4-2.3-3.3c-3.2-2.7-7.1-1.3-9.4,1.7
			c-2.2,2.9-2.9,6.4-3.6,9.9c-0.3,1.7,0.5,3.4,2.2,3.9c1.5,0.4,3.5-0.5,3.9-2.2c0.4-2.1,0.7-4.4,1.7-6.3c0.2-0.5,0.8-1.7,1.3-2.1
			c0,0,0.1,0.1,0.1,0.2c0.2,0.5,0.4,0.8,0.5,1.3c1.5,4.9,1.9,10.1,1.7,15.3c-0.2,4.1,5.9,4,6.3,0c0.3-3.2,0.6-6.3,1.4-9.4
			c0.4-1.7,0.9-3.3,1.5-4.9c0.2-0.5,0.4-1.1,0.7-1.6c0.1-0.2,0.3-0.5,0.5-0.9c0.2,1.3,0.3,2.6,0.4,3.9c0.3,3.5,0.4,7,0.3,10.5
			c-0.1,3.5,5.5,4.4,6.2,0.8c0.7-3.9,1.5-7.8,2.7-11.6c0.6-1.8,1.3-3.5,2.1-5.1c0.3-0.5,0.6-1,0.9-1.5c0.1,2.6-0.4,5.3-0.7,7.6
			c-0.5,4.3-1.2,9.1-0.3,13.4c0.8,3.8,4.6,6.6,8.2,4.2c3.5-2.2,6.4-6,8.9-9.2C61.7,41.9,62,40.1,60.7,38.8z"/>
	</g>
	<g>
		<path class="st0" d="M115.3,26.1c-0.7-0.9-1.7-1.7-2.8-2.2c-1.2-0.5-2.7-0.8-4.6-0.8c-1,0-2.2,0.2-3.4,0.6
			c-1.2,0.4-2.3,0.9-3.2,1.6c-0.7-0.6-1.5-1.1-2.6-1.5c-1-0.4-2.4-0.6-4.1-0.6c-0.9,0-1.7,0-2.6,0.1c-0.9,0.1-1.7,0.2-2.6,0.3
			c-0.8,0.1-1.6,0.3-2.4,0.4c-0.8,0.2-1.4,0.3-2,0.5v22.4h6.6V28.9c0.4-0.1,0.8-0.1,1.3-0.2c0.4,0,0.9-0.1,1.3-0.1
			c1.3,0,2.3,0.4,2.8,1.3c0.5,0.9,0.8,2.4,0.8,4.5v12.3h6.6V34.2c0-0.9,0-1.7-0.1-2.4c-0.1-0.7-0.2-1.5-0.4-2.1
			c0.4-0.3,0.9-0.5,1.6-0.7c0.6-0.2,1.1-0.3,1.5-0.3c1.3,0,2.3,0.4,2.8,1.3c0.5,0.9,0.8,2.4,0.8,4.5v12.3h6.6V33.8
			c0-1.6-0.1-3-0.4-4.3C116.5,28.1,116,27,115.3,26.1z"/>
		<path class="st0" d="M132.4,23c-1.4,0-2.8,0.3-4.1,0.8c-1.3,0.5-2.5,1.3-3.5,2.3c-1,1-1.9,2.3-2.5,3.9c-0.6,1.5-0.9,3.3-0.9,5.4
			c0,1.7,0.2,3.3,0.7,4.8c0.5,1.5,1.2,2.7,2.2,3.8c1,1.1,2.3,1.9,3.8,2.5c1.5,0.6,3.4,0.9,5.4,0.9c0.8,0,1.6,0,2.5-0.1
			c0.8-0.1,1.6-0.2,2.3-0.3c0.7-0.1,1.4-0.3,2-0.5c0.6-0.2,1.1-0.4,1.4-0.5l-0.9-5.3c-0.7,0.3-1.7,0.6-2.8,0.8
			c-1.2,0.2-2.3,0.3-3.5,0.3c-1.9,0-3.4-0.4-4.5-1.2c-1.1-0.8-1.7-1.9-1.9-3.2h14.9c0-0.4,0.1-0.8,0.1-1.2c0-0.5,0-0.9,0-1.3
			c0-3.9-1-6.9-2.9-8.9C138.3,24,135.7,23,132.4,23z M128,32.9c0.1-0.6,0.2-1.1,0.4-1.7c0.2-0.5,0.5-1,0.8-1.4
			c0.4-0.4,0.8-0.7,1.3-1c0.5-0.2,1.2-0.4,1.9-0.4c0.8,0,1.4,0.1,1.9,0.4c0.5,0.3,0.9,0.6,1.3,1c0.3,0.4,0.6,0.9,0.7,1.4
			c0.2,0.5,0.3,1.1,0.3,1.6H128z"/>
		<path class="st0" d="M159.7,23.4c-0.5-0.1-1-0.1-1.5-0.2c-0.5,0-0.9-0.1-1.3-0.1c-2,0-3.8,0.2-5.4,0.6c-1.6,0.4-3,0.8-4.2,1.2v22
			h6.6V29.1c0.3-0.1,0.7-0.2,1.3-0.2c0.6-0.1,1.1-0.1,1.5-0.1c0.9,0,1.8,0.1,2.6,0.2c0.8,0.2,1.5,0.3,2.1,0.5l1.1-5.4
			c-0.4-0.1-0.8-0.3-1.3-0.4C160.7,23.6,160.2,23.5,159.7,23.4z"/>
		<path class="st0" d="M179.5,27.4c-0.4,1.3-0.8,2.7-1.2,4.1c-0.4,1.4-0.8,2.7-1.2,4c-0.4,1.3-0.8,2.5-1.2,3.5
			c-0.4-1.1-0.8-2.2-1.3-3.5c-0.5-1.3-0.9-2.6-1.4-4c-0.4-1.4-0.9-2.7-1.3-4.1c-0.4-1.3-0.7-2.6-1-3.7h-7c1.3,4.6,2.7,8.7,4.2,12.3
			c1.5,3.7,3,7,4.5,9.9c-0.4,1.1-1,2-1.6,2.6c-0.6,0.6-1.5,0.9-2.7,0.9c-0.6,0-1.1,0-1.7-0.1c-0.5-0.1-1.1-0.2-1.8-0.5l-1.1,5.2
			c0.6,0.2,1.3,0.4,2.1,0.6c0.9,0.2,1.8,0.3,2.8,0.3c1.2,0,2.3-0.1,3.2-0.4c0.9-0.3,1.8-0.7,2.5-1.3c0.7-0.6,1.4-1.4,2-2.3
			c0.6-0.9,1.2-2,1.9-3.4c1.7-3.7,3.3-7.5,4.7-11.4c1.4-3.9,2.8-8.1,4.2-12.6h-6.8C180.2,24.8,179.9,26,179.5,27.4z"/>
		<path class="st0" d="M222.2,41.6c-0.4,0.1-0.9,0.1-1.4,0.2c-0.5,0-1,0.1-1.5,0.1c-1.5,0-2.6-0.5-3.1-1.4c-0.6-0.9-0.8-2.5-0.8-4.6
			V23.7h-6.6v0h-12.3v-6.8l-6.6,1.1v19.5c0,1.5,0.1,2.9,0.4,4.1c0.3,1.2,0.8,2.3,1.5,3.2c0.7,0.9,1.6,1.5,2.8,2
			c1.2,0.5,2.7,0.7,4.5,0.7c1.4,0,2.6-0.1,3.6-0.4c1-0.2,1.9-0.5,2.6-0.8l-0.9-5.1c-0.6,0.2-1.3,0.4-2,0.6c-0.7,0.1-1.5,0.2-2.2,0.2
			c-1.5,0-2.4-0.4-2.9-1.2c-0.5-0.8-0.7-1.9-0.7-3.3v-8.2h12.3v7.5c0,1.6,0.2,3,0.5,4.4c0.3,1.3,0.9,2.5,1.6,3.4
			c0.8,1,1.8,1.7,3.1,2.2c1.3,0.5,2.9,0.8,4.9,0.8c1.9,0,3.8-0.1,5.6-0.4c1.8-0.3,3.2-0.6,4.3-0.9V23.7h-6.6V41.6z"/>
		<path class="st0" d="M240.4,25.8c0-0.9-0.7-1.4-1.7-1.4h-1.9v4.3h0.8v-1.5h0.9l1,1.5h1l-1.2-1.6C240,27,240.4,26.5,240.4,25.8z
			 M238.7,26.6h-1.1v-1.4h1.1c0.5,0,0.9,0.2,0.9,0.7C239.6,26.3,239.3,26.6,238.7,26.6z"/>
		<path class="st0" d="M238.5,22.6c-2.3,0-4.1,1.9-4.1,4.1s1.8,4.1,4.1,4.1c2.3,0,4.1-1.9,4.1-4.1C242.6,24.5,240.8,22.6,238.5,22.6
			z M238.5,30.4c-2.1,0-3.7-1.6-3.7-3.7c0-2,1.6-3.7,3.7-3.7c2.1,0,3.7,1.6,3.7,3.7C242.2,28.8,240.6,30.4,238.5,30.4z"/>
	</g>
</g>
</svg>
